<svg xmlns="http://www.w3.org/2000/svg" xmlns:xlink="http://www.w3.org/1999/xlink" version="1.1" class="marks" width="838" height="394" viewBox="0 0 838 394"><rect width="838" height="394" fill="white"/><g fill="none" stroke-miterlimit="10" transform="translate(107,27)"><g class="mark-group role-frame root" role="graphics-object" aria-roledescription="group mark container"><g transform="translate(0,0)"><path class="background" aria-hidden="true" d="M0,0h650v330h-650Z"/><g><g class="mark-group role-axis" aria-hidden="true"><g transform="translate(0.5,330.5)"><path class="background" aria-hidden="true" d="M0,0h0v0h0Z" pointer-events="none"/><g><g class="mark-rule role-axis-grid" pointer-events="none"><line transform="translate(0,0)" x2="0" y2="-330" stroke="#ddd" stroke-width="1" opacity="1"/><line transform="translate(41,0)" x2="0" y2="-330" stroke="#ddd" stroke-width="1" opacity="1"/><line transform="translate(81,0)" x2="0" y2="-330" stroke="#ddd" stroke-width="1" opacity="1"/><line transform="translate(122,0)" x2="0" y2="-330" stroke="#ddd" stroke-width="1" opacity="1"/><line transform="translate(163,0)" x2="0" y2="-330" stroke="#ddd" stroke-width="1" opacity="1"/><line transform="translate(203,0)" x2="0" y2="-330" stroke="#ddd" stroke-width="1" opacity="1"/><line transform="translate(244,0)" x2="0" y2="-330" stroke="#ddd" stroke-width="1" opacity="1"/><line transform="translate(284,0)" x2="0" y2="-330" stroke="#ddd" stroke-width="1" opacity="1"/><line transform="translate(325,0)" x2="0" y2="-330" stroke="#ddd" stroke-width="1" opacity="1"/><line transform="translate(366,0)" x2="0" y2="-330" stroke="#ddd" stroke-width="1" opacity="1"/><line transform="translate(406,0)" x2="0" y2="-330" stroke="#ddd" stroke-width="1" opacity="1"/><line transform="translate(447,0)" x2="0" y2="-330" stroke="#ddd" stroke-width="1" opacity="1"/><line transform="translate(488,0)" x2="0" y2="-330" stroke="#ddd" stroke-width="1" opacity="1"/><line transform="translate(528,0)" x2="0" y2="-330" stroke="#ddd" stroke-width="1" opacity="1"/><line transform="translate(569,0)" x2="0" y2="-330" stroke="#ddd" stroke-width="1" opacity="1"/><line transform="translate(609,0)" x2="0" y2="-330" stroke="#ddd" stroke-width="1" opacity="1"/><line transform="translate(650,0)" x2="0" y2="-330" stroke="#ddd" stroke-width="1" opacity="1"/></g></g><path class="foreground" aria-hidden="true" d="" pointer-events="none" display="none"/></g></g><g class="mark-group role-axis" role="graphics-symbol" aria-roledescription="axis" aria-label="X-axis titled 'Total Investment (USD Millions)' for a linear scale with values from 0 to 1,600"><g transform="translate(0.5,330.5)"><path class="background" aria-hidden="true" d="M0,0h0v0h0Z" pointer-events="none"/><g><g class="mark-rule role-axis-tick" pointer-events="none"><line transform="translate(0,0)" x2="0" y2="5" stroke="#888" stroke-width="1" opacity="1"/><line transform="translate(41,0)" x2="0" y2="5" stroke="#888" stroke-width="1" opacity="1"/><line transform="translate(81,0)" x2="0" y2="5" stroke="#888" stroke-width="1" opacity="1"/><line transform="translate(122,0)" x2="0" y2="5" stroke="#888" stroke-width="1" opacity="1"/><line transform="translate(163,0)" x2="0" y2="5" stroke="#888" stroke-width="1" opacity="1"/><line transform="translate(203,0)" x2="0" y2="5" stroke="#888" stroke-width="1" opacity="1"/><line transform="translate(244,0)" x2="0" y2="5" stroke="#888" stroke-width="1" opacity="1"/><line transform="translate(284,0)" x2="0" y2="5" stroke="#888" stroke-width="1" opacity="1"/><line transform="translate(325,0)" x2="0" y2="5" stroke="#888" stroke-width="1" opacity="1"/><line transform="translate(366,0)" x2="0" y2="5" stroke="#888" stroke-width="1" opacity="1"/><line transform="translate(406,0)" x2="0" y2="5" stroke="#888" stroke-width="1" opacity="1"/><line transform="translate(447,0)" x2="0" y2="5" stroke="#888" stroke-width="1" opacity="1"/><line transform="translate(488,0)" x2="0" y2="5" stroke="#888" stroke-width="1" opacity="1"/><line transform="translate(528,0)" x2="0" y2="5" stroke="#888" stroke-width="1" opacity="1"/><line transform="translate(569,0)" x2="0" y2="5" stroke="#888" stroke-width="1" opacity="1"/><line transform="translate(609,0)" x2="0" y2="5" stroke="#888" stroke-width="1" opacity="1"/><line transform="translate(650,0)" x2="0" y2="5" stroke="#888" stroke-width="1" opacity="1"/></g><g class="mark-text role-axis-label" pointer-events="none"><text text-anchor="start" transform="translate(0,15)" font-family="sans-serif" font-size="10px" fill="#000" opacity="1">0</text><text text-anchor="middle" transform="translate(40.625,15)" font-family="sans-serif" font-size="10px" fill="#000" opacity="1">100</text><text text-anchor="middle" transform="translate(81.25,15)" font-family="sans-serif" font-size="10px" fill="#000" opacity="1">200</text><text text-anchor="middle" transform="translate(121.875,15)" font-family="sans-serif" font-size="10px" fill="#000" opacity="1">300</text><text text-anchor="middle" transform="translate(162.5,15)" font-family="sans-serif" font-size="10px" fill="#000" opacity="1">400</text><text text-anchor="middle" transform="translate(203.125,15)" font-family="sans-serif" font-size="10px" fill="#000" opacity="1">500</text><text text-anchor="middle" transform="translate(243.75,15)" font-family="sans-serif" font-size="10px" fill="#000" opacity="1">600</text><text text-anchor="middle" transform="translate(284.375,15)" font-family="sans-serif" font-size="10px" fill="#000" opacity="1">700</text><text text-anchor="middle" transform="translate(325,15)" font-family="sans-serif" font-size="10px" fill="#000" opacity="1">800</text><text text-anchor="middle" transform="translate(365.625,15)" font-family="sans-serif" font-size="10px" fill="#000" opacity="1">900</text><text text-anchor="middle" transform="translate(406.25,15)" font-family="sans-serif" font-size="10px" fill="#000" opacity="1">1,000</text><text text-anchor="middle" transform="translate(446.875,15)" font-family="sans-serif" font-size="10px" fill="#000" opacity="1">1,100</text><text text-anchor="middle" transform="translate(487.5,15)" font-family="sans-serif" font-size="10px" fill="#000" opacity="1">1,200</text><text text-anchor="middle" transform="translate(528.125,15)" font-family="sans-serif" font-size="10px" fill="#000" opacity="1">1,300</text><text text-anchor="middle" transform="translate(568.75,15)" font-family="sans-serif" font-size="10px" fill="#000" opacity="1">1,400</text><text text-anchor="middle" transform="translate(609.375,15)" font-family="sans-serif" font-size="10px" fill="#000" opacity="1">1,500</text><text text-anchor="end" transform="translate(650,15)" font-family="sans-serif" font-size="10px" fill="#000" opacity="1">1,600</text></g><g class="mark-rule role-axis-domain" pointer-events="none"><line transform="translate(0,0)" x2="650" y2="0" stroke="#888" stroke-width="1" opacity="1"/></g><g class="mark-text role-axis-title" pointer-events="none"><text text-anchor="middle" transform="translate(325,30)" font-family="sans-serif" font-size="11px" font-weight="bold" fill="#000" opacity="1">Total Investment (USD Millions)</text></g></g><path class="foreground" aria-hidden="true" d="" pointer-events="none" display="none"/></g></g><g class="mark-group role-axis" role="graphics-symbol" aria-roledescription="axis" aria-label="Y-axis for a discrete scale with 15 values: United Arab Emirates, Chile, Italy, Argentina, Hungary, ending with Cuba"><g transform="translate(0.5,0.5)"><path class="background" aria-hidden="true" d="M0,0h0v0h0Z" pointer-events="none"/><g><g class="mark-rule role-axis-tick" pointer-events="none"><line transform="translate(0,11)" x2="-5" y2="0" stroke="#888" stroke-width="1" opacity="1"/><line transform="translate(0,33)" x2="-5" y2="0" stroke="#888" stroke-width="1" opacity="1"/><line transform="translate(0,55)" x2="-5" y2="0" stroke="#888" stroke-width="1" opacity="1"/><line transform="translate(0,77)" x2="-5" y2="0" stroke="#888" stroke-width="1" opacity="1"/><line transform="translate(0,99)" x2="-5" y2="0" stroke="#888" stroke-width="1" opacity="1"/><line transform="translate(0,121)" x2="-5" y2="0" stroke="#888" stroke-width="1" opacity="1"/><line transform="translate(0,143)" x2="-5" y2="0" stroke="#888" stroke-width="1" opacity="1"/><line transform="translate(0,165)" x2="-5" y2="0" stroke="#888" stroke-width="1" opacity="1"/><line transform="translate(0,187)" x2="-5" y2="0" stroke="#888" stroke-width="1" opacity="1"/><line transform="translate(0,209)" x2="-5" y2="0" stroke="#888" stroke-width="1" opacity="1"/><line transform="translate(0,231)" x2="-5" y2="0" stroke="#888" stroke-width="1" opacity="1"/><line transform="translate(0,253)" x2="-5" y2="0" stroke="#888" stroke-width="1" opacity="1"/><line transform="translate(0,275)" x2="-5" y2="0" stroke="#888" stroke-width="1" opacity="1"/><line transform="translate(0,297)" x2="-5" y2="0" stroke="#888" stroke-width="1" opacity="1"/><line transform="translate(0,319)" x2="-5" y2="0" stroke="#888" stroke-width="1" opacity="1"/></g><g class="mark-text role-axis-label" pointer-events="none"><text text-anchor="end" transform="translate(-7,13.5)" font-family="sans-serif" font-size="10px" fill="#000" opacity="1">United Arab Emirates</text><text text-anchor="end" transform="translate(-7,35.5)" font-family="sans-serif" font-size="10px" fill="#000" opacity="1">Chile</text><text text-anchor="end" transform="translate(-7,57.5)" font-family="sans-serif" font-size="10px" fill="#000" opacity="1">Italy</text><text text-anchor="end" transform="translate(-7,79.5)" font-family="sans-serif" font-size="10px" fill="#000" opacity="1">Argentina</text><text text-anchor="end" transform="translate(-7,101.5)" font-family="sans-serif" font-size="10px" fill="#000" opacity="1">Hungary</text><text text-anchor="end" transform="translate(-7,123.5)" font-family="sans-serif" font-size="10px" fill="#000" opacity="1">Cameroon</text><text text-anchor="end" transform="translate(-7,145.5)" font-family="sans-serif" font-size="10px" fill="#000" opacity="1">Turkey</text><text text-anchor="end" transform="translate(-7,167.5)" font-family="sans-serif" font-size="10px" fill="#000" opacity="1">Egypt</text><text text-anchor="end" transform="translate(-7,189.5)" font-family="sans-serif" font-size="10px" fill="#000" opacity="1">Morocco</text><text text-anchor="end" transform="translate(-7,211.5)" font-family="sans-serif" font-size="10px" fill="#000" opacity="1">Kenya</text><text text-anchor="end" transform="translate(-7,233.5)" font-family="sans-serif" font-size="10px" fill="#000" opacity="1">Romania</text><text text-anchor="end" transform="translate(-7,255.5)" font-family="sans-serif" font-size="10px" fill="#000" opacity="1">Saudi Arabia</text><text text-anchor="end" transform="translate(-7,277.5)" font-family="sans-serif" font-size="10px" fill="#000" opacity="1">Lesotho</text><text text-anchor="end" transform="translate(-7,299.5)" font-family="sans-serif" font-size="10px" fill="#000" opacity="1">South Africa</text><text text-anchor="end" transform="translate(-7,321.5)" font-family="sans-serif" font-size="10px" fill="#000" opacity="1">Cuba</text></g><g class="mark-rule role-axis-domain" pointer-events="none"><line transform="translate(0,0)" x2="0" y2="330" stroke="#888" stroke-width="1" opacity="1"/></g></g><path class="foreground" aria-hidden="true" d="" pointer-events="none" display="none"/></g></g><g class="mark-rule role-mark layer_0_marks" role="graphics-object" aria-roledescription="rule mark container"><line aria-label="Total Investment (USD Millions): 1553.80363636; country: United Arab Emirates" role="graphics-symbol" aria-roledescription="rule mark" transform="translate(631.2327272727272,11)" x2="-631.2327272727272" y2="0" stroke="black"/><line aria-label="Total Investment (USD Millions): 906.7; country: Chile" role="graphics-symbol" aria-roledescription="rule mark" transform="translate(368.346875,33)" x2="-368.346875" y2="0" stroke="black"/><line aria-label="Total Investment (USD Millions): 730.06; country: Italy" role="graphics-symbol" aria-roledescription="rule mark" transform="translate(296.58687499999996,55)" x2="-296.58687499999996" y2="0" stroke="black"/><line aria-label="Total Investment (USD Millions): 662.5; country: Argentina" role="graphics-symbol" aria-roledescription="rule mark" transform="translate(269.140625,77)" x2="-269.140625" y2="0" stroke="black"/><line aria-label="Total Investment (USD Millions): 178.55; country: Hungary" role="graphics-symbol" aria-roledescription="rule mark" transform="translate(72.5359375,99)" x2="-72.5359375" y2="0" stroke="black"/><line aria-label="Total Investment (USD Millions): 171; country: Cameroon" role="graphics-symbol" aria-roledescription="rule mark" transform="translate(69.46875,121)" x2="-69.46875" y2="0" stroke="black"/><line aria-label="Total Investment (USD Millions): 162.5; country: Turkey" role="graphics-symbol" aria-roledescription="rule mark" transform="translate(66.015625,143)" x2="-66.015625" y2="0" stroke="black"/><line aria-label="Total Investment (USD Millions): 152.76; country: Egypt" role="graphics-symbol" aria-roledescription="rule mark" transform="translate(62.058749999999996,165)" x2="-62.058749999999996" y2="0" stroke="black"/><line aria-label="Total Investment (USD Millions): 151.95; country: Morocco" role="graphics-symbol" aria-roledescription="rule mark" transform="translate(61.7296875,187)" x2="-61.7296875" y2="0" stroke="black"/><line aria-label="Total Investment (USD Millions): 135.7; country: Kenya" role="graphics-symbol" aria-roledescription="rule mark" transform="translate(55.128125,209)" x2="-55.128125" y2="0" stroke="black"/><line aria-label="Total Investment (USD Millions): 114.12; country: Romania" role="graphics-symbol" aria-roledescription="rule mark" transform="translate(46.36125,231)" x2="-46.36125" y2="0" stroke="black"/><line aria-label="Total Investment (USD Millions): 74; country: Saudi Arabia" role="graphics-symbol" aria-roledescription="rule mark" transform="translate(30.0625,253)" x2="-30.0625" y2="0" stroke="black"/><line aria-label="Total Investment (USD Millions): 70; country: Lesotho" role="graphics-symbol" aria-roledescription="rule mark" transform="translate(28.437499999999996,275)" x2="-28.437499999999996" y2="0" stroke="black"/><line aria-label="Total Investment (USD Millions): 61.7216654786; country: South Africa" role="graphics-symbol" aria-roledescription="rule mark" transform="translate(25.07442660069604,297)" x2="-25.07442660069604" y2="0" stroke="black"/><line aria-label="Total Investment (USD Millions): 60; country: Cuba" role="graphics-symbol" aria-roledescription="rule mark" transform="translate(24.375,319)" x2="-24.375" y2="0" stroke="black"/></g><g class="mark-symbol role-mark layer_1_marks" role="graphics-object" aria-roledescription="symbol mark container"><path aria-label="total_investment_musd: 1553.80363636; country: United Arab Emirates; region: Asia; Investment (M USD): 1,553.8" role="graphics-symbol" aria-roledescription="circle" transform="translate(631.2327272727272,11)" d="M4.743,0A4.743,4.743,0,1,1,-4.743,0A4.743,4.743,0,1,1,4.743,0" fill="#E8B200" stroke-width="2" opacity="0.7"/><path aria-label="total_investment_musd: 906.7; country: Chile; region: Americas; Investment (M USD): 906.7" role="graphics-symbol" aria-roledescription="circle" transform="translate(368.346875,33)" d="M4.743,0A4.743,4.743,0,1,1,-4.743,0A4.743,4.743,0,1,1,4.743,0" fill="#FF8F00" stroke-width="2" opacity="0.7"/><path aria-label="total_investment_musd: 730.06; country: Italy; region: Europe; Investment (M USD): 730.1" role="graphics-symbol" aria-roledescription="circle" transform="translate(296.58687499999996,55)" d="M4.743,0A4.743,4.743,0,1,1,-4.743,0A4.743,4.743,0,1,1,4.743,0" fill="#006796" stroke-width="2" opacity="0.7"/><path aria-label="total_investment_musd: 662.5; country: Argentina; region: Americas; Investment (M USD): 662.5" role="graphics-symbol" aria-roledescription="circle" transform="translate(269.140625,77)" d="M4.743,0A4.743,4.743,0,1,1,-4.743,0A4.743,4.743,0,1,1,4.743,0" fill="#FF8F00" stroke-width="2" opacity="0.7"/><path aria-label="total_investment_musd: 178.55; country: Hungary; region: Europe; Investment (M USD): 178.6" role="graphics-symbol" aria-roledescription="circle" transform="translate(72.5359375,99)" d="M4.743,0A4.743,4.743,0,1,1,-4.743,0A4.743,4.743,0,1,1,4.743,0" fill="#006796" stroke-width="2" opacity="0.7"/><path aria-label="total_investment_musd: 171; country: Cameroon; region: Africa; Investment (M USD): 171.0" role="graphics-symbol" aria-roledescription="circle" transform="translate(69.46875,121)" d="M4.743,0A4.743,4.743,0,1,1,-4.743,0A4.743,4.743,0,1,1,4.743,0" fill="#B55A2A" stroke-width="2" opacity="0.7"/><path aria-label="total_investment_musd: 162.5; country: Turkey; region: Asia; Investment (M USD): 162.5" role="graphics-symbol" aria-roledescription="circle" transform="translate(66.015625,143)" d="M4.743,0A4.743,4.743,0,1,1,-4.743,0A4.743,4.743,0,1,1,4.743,0" fill="#E8B200" stroke-width="2" opacity="0.7"/><path aria-label="total_investment_musd: 152.76; country: Egypt; region: Africa; Investment (M USD): 152.8" role="graphics-symbol" aria-roledescription="circle" transform="translate(62.058749999999996,165)" d="M4.743,0A4.743,4.743,0,1,1,-4.743,0A4.743,4.743,0,1,1,4.743,0" fill="#B55A2A" stroke-width="2" opacity="0.7"/><path aria-label="total_investment_musd: 151.95; country: Morocco; region: Africa; Investment (M USD): 151.9" role="graphics-symbol" aria-roledescription="circle" transform="translate(61.7296875,187)" d="M4.743,0A4.743,4.743,0,1,1,-4.743,0A4.743,4.743,0,1,1,4.743,0" fill="#B55A2A" stroke-width="2" opacity="0.7"/><path aria-label="total_investment_musd: 135.7; country: Kenya; region: Africa; Investment (M USD): 135.7" role="graphics-symbol" aria-roledescription="circle" transform="translate(55.128125,209)" d="M4.743,0A4.743,4.743,0,1,1,-4.743,0A4.743,4.743,0,1,1,4.743,0" fill="#B55A2A" stroke-width="2" opacity="0.7"/><path aria-label="total_investment_musd: 114.12; country: Romania; region: Europe; Investment (M USD): 114.1" role="graphics-symbol" aria-roledescription="circle" transform="translate(46.36125,231)" d="M4.743,0A4.743,4.743,0,1,1,-4.743,0A4.743,4.743,0,1,1,4.743,0" fill="#006796" stroke-width="2" opacity="0.7"/><path aria-label="total_investment_musd: 74; country: Saudi Arabia; region: Asia; Investment (M USD): 74.0" role="graphics-symbol" aria-roledescription="circle" transform="translate(30.0625,253)" d="M4.743,0A4.743,4.743,0,1,1,-4.743,0A4.743,4.743,0,1,1,4.743,0" fill="#E8B200" stroke-width="2" opacity="0.7"/><path aria-label="total_investment_musd: 70; country: Lesotho; region: Africa; Investment (M USD): 70.0" role="graphics-symbol" aria-roledescription="circle" transform="translate(28.437499999999996,275)" d="M4.743,0A4.743,4.743,0,1,1,-4.743,0A4.743,4.743,0,1,1,4.743,0" fill="#B55A2A" stroke-width="2" opacity="0.7"/><path aria-label="total_investment_musd: 61.7216654786; country: South Africa; region: Africa; Investment (M USD): 61.7" role="graphics-symbol" aria-roledescription="circle" transform="translate(25.07442660069604,297)" d="M4.743,0A4.743,4.743,0,1,1,-4.743,0A4.743,4.743,0,1,1,4.743,0" fill="#B55A2A" stroke-width="2" opacity="0.7"/><path aria-label="total_investment_musd: 60; country: Cuba; region: Americas; Investment (M USD): 60.0" role="graphics-symbol" aria-roledescription="circle" transform="translate(24.375,319)" d="M4.743,0A4.743,4.743,0,1,1,-4.743,0A4.743,4.743,0,1,1,4.743,0" fill="#FF8F00" stroke-width="2" opacity="0.7"/></g><g class="mark-group role-legend" role="graphics-symbol" aria-roledescription="legend" aria-label="Symbol legend titled 'Region' for fill color with 4 values: Africa, Asia, Europe, Americas"><g transform="translate(668,0)"><path class="background" aria-hidden="true" d="M0,0h58v66h-58Z" pointer-events="none"/><g><g class="mark-group role-legend-entry"><g transform="translate(0,16)"><path class="background" aria-hidden="true" d="M0,0h0v0h0Z" pointer-events="none"/><g><g class="mark-group role-scope" role="graphics-object" aria-roledescription="group mark container"><g transform="translate(0,0)"><path class="background" aria-hidden="true" d="M0,0h57.6748046875v11h-57.6748046875Z" pointer-events="none" opacity="1"/><g><g class="mark-symbol role-legend-symbol" pointer-events="none"><path transform="translate(6,6)" d="M5,0A5,5,0,1,1,-5,0A5,5,0,1,1,5,0" fill="#B55A2A" stroke-width="1.5" opacity="0.7"/></g><g class="mark-text role-legend-label" pointer-events="none"><text text-anchor="start" transform="translate(16,9)" font-family="sans-serif" font-size="10px" fill="#000" opacity="1">Africa</text></g></g><path class="foreground" aria-hidden="true" d="" pointer-events="none" display="none"/></g><g transform="translate(0,13)"><path class="background" aria-hidden="true" d="M0,0h57.6748046875v11h-57.6748046875Z" pointer-events="none" opacity="1"/><g><g class="mark-symbol role-legend-symbol" pointer-events="none"><path transform="translate(6,6)" d="M5,0A5,5,0,1,1,-5,0A5,5,0,1,1,5,0" fill="#E8B200" stroke-width="1.5" opacity="0.7"/></g><g class="mark-text role-legend-label" pointer-events="none"><text text-anchor="start" transform="translate(16,9)" font-family="sans-serif" font-size="10px" fill="#000" opacity="1">Asia</text></g></g><path class="foreground" aria-hidden="true" d="" pointer-events="none" display="none"/></g><g transform="translate(0,26)"><path class="background" aria-hidden="true" d="M0,0h57.6748046875v11h-57.6748046875Z" pointer-events="none" opacity="1"/><g><g class="mark-symbol role-legend-symbol" pointer-events="none"><path transform="translate(6,6)" d="M5,0A5,5,0,1,1,-5,0A5,5,0,1,1,5,0" fill="#006796" stroke-width="1.5" opacity="0.7"/></g><g class="mark-text role-legend-label" pointer-events="none"><text text-anchor="start" transform="translate(16,9)" font-family="sans-serif" font-size="10px" fill="#000" opacity="1">Europe</text></g></g><path class="foreground" aria-hidden="true" d="" pointer-events="none" display="none"/></g><g transform="translate(0,39)"><path class="background" aria-hidden="true" d="M0,0h57.6748046875v11h-57.6748046875Z" pointer-events="none" opacity="1"/><g><g class="mark-symbol role-legend-symbol" pointer-events="none"><path transform="translate(6,6)" d="M5,0A5,5,0,1,1,-5,0A5,5,0,1,1,5,0" fill="#FF8F00" stroke-width="1.5" opacity="0.7"/></g><g class="mark-text role-legend-label" pointer-events="none"><text text-anchor="start" transform="translate(16,9)" font-family="sans-serif" font-size="10px" fill="#000" opacity="1">Americas</text></g></g><path class="foreground" aria-hidden="true" d="" pointer-events="none" display="none"/></g></g></g><path class="foreground" aria-hidden="true" d="" pointer-events="none" display="none"/></g></g><g class="mark-text role-legend-title" pointer-events="none"><text text-anchor="start" transform="translate(0,9)" font-family="sans-serif" font-size="11px" font-weight="bold" fill="#000" opacity="1">Region</text></g></g><path class="foreground" aria-hidden="true" d="" pointer-events="none" display="none"/></g></g><g class="mark-group role-title"><g transform="translate(325,-21)"><path class="background" aria-hidden="true" d="M0,0h0v0h0Z" pointer-events="none"/><g><g class="mark-text role-title-text" role="graphics-symbol" aria-roledescription="title" aria-label="Title text 'China’s Major Foreign Solar Investment Destinations'" pointer-events="none"><text text-anchor="middle" transform="translate(0,13)" font-family="Helvetica" font-size="17px" font-weight="bold" fill="#000" opacity="1">China’s Major Foreign Solar Investment Destinations</text></g></g><path class="foreground" aria-hidden="true" d="" pointer-events="none" display="none"/></g></g></g><path class="foreground" aria-hidden="true" d="" display="none"/></g></g></g></svg>