<svg xmlns="http://www.w3.org/2000/svg" xmlns:xlink="http://www.w3.org/1999/xlink" version="1.1" class="marks" width="892" height="469" viewBox="0 0 892 469"><rect width="892" height="469" fill="white"/><g fill="none" stroke-miterlimit="10" transform="translate(58,32)"><g class="mark-group role-frame root" role="graphics-object" aria-roledescription="group mark container"><g transform="translate(0,0)"><path class="background" aria-hidden="true" d="M0.5,0.5h750v400h-750Z" stroke="#ddd"/><g><g class="mark-group role-axis" aria-hidden="true"><g transform="translate(0.5,400.5)"><path class="background" aria-hidden="true" d="M0,0h0v0h0Z" pointer-events="none"/><g><g class="mark-rule role-axis-grid" pointer-events="none"><line transform="translate(0,-400)" x2="0" y2="400" stroke="#ddd" stroke-width="1" opacity="1"/><line transform="translate(87,-400)" x2="0" y2="400" stroke="#ddd" stroke-width="1" opacity="1"/><line transform="translate(175,-400)" x2="0" y2="400" stroke="#ddd" stroke-width="1" opacity="1"/><line transform="translate(262,-400)" x2="0" y2="400" stroke="#ddd" stroke-width="1" opacity="1"/><line transform="translate(350,-400)" x2="0" y2="400" stroke="#ddd" stroke-width="1" opacity="1"/><line transform="translate(437,-400)" x2="0" y2="400" stroke="#ddd" stroke-width="1" opacity="1"/><line transform="translate(524,-400)" x2="0" y2="400" stroke="#ddd" stroke-width="1" opacity="1"/><line transform="translate(612,-400)" x2="0" y2="400" stroke="#ddd" stroke-width="1" opacity="1"/><line transform="translate(699,-400)" x2="0" y2="400" stroke="#ddd" stroke-width="1" opacity="1"/></g></g><path class="foreground" aria-hidden="true" d="" pointer-events="none" display="none"/></g></g><g class="mark-group role-axis" aria-hidden="true"><g transform="translate(0.5,0.5)"><path class="background" aria-hidden="true" d="M0,0h0v0h0Z" pointer-events="none"/><g><g class="mark-rule role-axis-grid" pointer-events="none"><line transform="translate(0,400)" x2="750" y2="0" stroke="#ddd" stroke-width="1" opacity="1"/><line transform="translate(0,360)" x2="750" y2="0" stroke="#ddd" stroke-width="1" opacity="1"/><line transform="translate(0,320)" x2="750" y2="0" stroke="#ddd" stroke-width="1" opacity="1"/><line transform="translate(0,280)" x2="750" y2="0" stroke="#ddd" stroke-width="1" opacity="1"/><line transform="translate(0,240)" x2="750" y2="0" stroke="#ddd" stroke-width="1" opacity="1"/><line transform="translate(0,200)" x2="750" y2="0" stroke="#ddd" stroke-width="1" opacity="1"/><line transform="translate(0,160)" x2="750" y2="0" stroke="#ddd" stroke-width="1" opacity="1"/><line transform="translate(0,120)" x2="750" y2="0" stroke="#ddd" stroke-width="1" opacity="1"/><line transform="translate(0,80)" x2="750" y2="0" stroke="#ddd" stroke-width="1" opacity="1"/><line transform="translate(0,40)" x2="750" y2="0" stroke="#ddd" stroke-width="1" opacity="1"/><line transform="translate(0,0)" x2="750" y2="0" stroke="#ddd" stroke-width="1" opacity="1"/></g></g><path class="foreground" aria-hidden="true" d="" pointer-events="none" display="none"/></g></g><g class="mark-group role-axis" role="graphics-symbol" aria-roledescription="axis" aria-label="X-axis titled 'Year' for a time scale with values from 2017 to 2025"><g transform="translate(0.5,400.5)"><path class="background" aria-hidden="true" d="M0,0h0v0h0Z" pointer-events="none"/><g><g class="mark-rule role-axis-tick" pointer-events="none"><line transform="translate(0,0)" x2="0" y2="5" stroke="#888" stroke-width="1" opacity="1"/><line transform="translate(87,0)" x2="0" y2="5" stroke="#888" stroke-width="1" opacity="1"/><line transform="translate(175,0)" x2="0" y2="5" stroke="#888" stroke-width="1" opacity="1"/><line transform="translate(262,0)" x2="0" y2="5" stroke="#888" stroke-width="1" opacity="1"/><line transform="translate(350,0)" x2="0" y2="5" stroke="#888" stroke-width="1" opacity="1"/><line transform="translate(437,0)" x2="0" y2="5" stroke="#888" stroke-width="1" opacity="1"/><line transform="translate(524,0)" x2="0" y2="5" stroke="#888" stroke-width="1" opacity="1"/><line transform="translate(612,0)" x2="0" y2="5" stroke="#888" stroke-width="1" opacity="1"/><line transform="translate(699,0)" x2="0" y2="5" stroke="#888" stroke-width="1" opacity="1"/></g><g class="mark-text role-axis-label" pointer-events="none"><text text-anchor="start" transform="translate(0,15)" font-family="sans-serif" font-size="10px" fill="#000" opacity="1">2017</text><text text-anchor="middle" transform="translate(87.34959781958386,15)" font-family="sans-serif" font-size="10px" fill="#000" opacity="1">2018</text><text text-anchor="middle" transform="translate(174.69919563916773,15)" font-family="sans-serif" font-size="10px" fill="#000" opacity="1">2019</text><text text-anchor="middle" transform="translate(262.04879345875156,15)" font-family="sans-serif" font-size="10px" fill="#000" opacity="1">2020</text><text text-anchor="middle" transform="translate(349.6377052449644,15)" font-family="sans-serif" font-size="10px" fill="#000" opacity="1">2021</text><text text-anchor="middle" transform="translate(436.9873030645483,15)" font-family="sans-serif" font-size="10px" fill="#000" opacity="1">2022</text><text text-anchor="middle" transform="translate(524.3369008841321,15)" font-family="sans-serif" font-size="10px" fill="#000" opacity="1">2023</text><text text-anchor="middle" transform="translate(611.686498703716,15)" font-family="sans-serif" font-size="10px" fill="#000" opacity="1">2024</text><text text-anchor="middle" transform="translate(699.2754104899288,15)" font-family="sans-serif" font-size="10px" fill="#000" opacity="1">2025</text></g><g class="mark-rule role-axis-domain" pointer-events="none"><line transform="translate(0,0)" x2="750" y2="0" stroke="#888" stroke-width="1" opacity="1"/></g><g class="mark-text role-axis-title" pointer-events="none"><text text-anchor="middle" transform="translate(375,30)" font-family="sans-serif" font-size="11px" font-weight="bold" fill="#000" opacity="1">Year</text></g></g><path class="foreground" aria-hidden="true" d="" pointer-events="none" display="none"/></g></g><g class="mark-group role-axis" role="graphics-symbol" aria-roledescription="axis" aria-label="Y-axis titled 'Total Capacity (MW)' for a linear scale with values from 0 to 50,000"><g transform="translate(0.5,0.5)"><path class="background" aria-hidden="true" d="M0,0h0v0h0Z" pointer-events="none"/><g><g class="mark-rule role-axis-tick" pointer-events="none"><line transform="translate(0,400)" x2="-5" y2="0" stroke="#888" stroke-width="1" opacity="1"/><line transform="translate(0,360)" x2="-5" y2="0" stroke="#888" stroke-width="1" opacity="1"/><line transform="translate(0,320)" x2="-5" y2="0" stroke="#888" stroke-width="1" opacity="1"/><line transform="translate(0,280)" x2="-5" y2="0" stroke="#888" stroke-width="1" opacity="1"/><line transform="translate(0,240)" x2="-5" y2="0" stroke="#888" stroke-width="1" opacity="1"/><line transform="translate(0,200)" x2="-5" y2="0" stroke="#888" stroke-width="1" opacity="1"/><line transform="translate(0,160)" x2="-5" y2="0" stroke="#888" stroke-width="1" opacity="1"/><line transform="translate(0,120)" x2="-5" y2="0" stroke="#888" stroke-width="1" opacity="1"/><line transform="translate(0,80)" x2="-5" y2="0" stroke="#888" stroke-width="1" opacity="1"/><line transform="translate(0,40)" x2="-5" y2="0" stroke="#888" stroke-width="1" opacity="1"/><line transform="translate(0,0)" x2="-5" y2="0" stroke="#888" stroke-width="1" opacity="1"/></g><g class="mark-text role-axis-label" pointer-events="none"><text text-anchor="end" transform="translate(-7,403)" font-family="sans-serif" font-size="10px" fill="#000" opacity="1">0</text><text text-anchor="end" transform="translate(-7,363)" font-family="sans-serif" font-size="10px" fill="#000" opacity="1">5,000</text><text text-anchor="end" transform="translate(-7,323)" font-family="sans-serif" font-size="10px" fill="#000" opacity="1">10,000</text><text text-anchor="end" transform="translate(-7,283)" font-family="sans-serif" font-size="10px" fill="#000" opacity="1">15,000</text><text text-anchor="end" transform="translate(-7,243)" font-family="sans-serif" font-size="10px" fill="#000" opacity="1">20,000</text><text text-anchor="end" transform="translate(-7,203)" font-family="sans-serif" font-size="10px" fill="#000" opacity="1">25,000</text><text text-anchor="end" transform="translate(-7,163)" font-family="sans-serif" font-size="10px" fill="#000" opacity="1">30,000</text><text text-anchor="end" transform="translate(-7,123.00000000000001)" font-family="sans-serif" font-size="10px" fill="#000" opacity="1">35,000</text><text text-anchor="end" transform="translate(-7,82.99999999999999)" font-family="sans-serif" font-size="10px" fill="#000" opacity="1">40,000</text><text text-anchor="end" transform="translate(-7,42.99999999999999)" font-family="sans-serif" font-size="10px" fill="#000" opacity="1">45,000</text><text text-anchor="end" transform="translate(-7,3)" font-family="sans-serif" font-size="10px" fill="#000" opacity="1">50,000</text></g><g class="mark-rule role-axis-domain" pointer-events="none"><line transform="translate(0,400)" x2="0" y2="-400" stroke="#888" stroke-width="1" opacity="1"/></g><g class="mark-text role-axis-title" pointer-events="none"><text text-anchor="middle" transform="translate(-41.5859375,200) rotate(-90) translate(0,-2)" font-family="sans-serif" font-size="11px" font-weight="bold" fill="#000" opacity="1">Total Capacity (MW)</text></g></g><path class="foreground" aria-hidden="true" d="" pointer-events="none" display="none"/></g></g><g class="mark-group role-scope pathgroup" role="graphics-object" aria-roledescription="group mark container"><g transform="translate(0,0)"><path class="background" aria-hidden="true" d="M0,0h750v400h-750Z"/><g><g class="mark-area role-mark marks" clip-path="url(#clip22)" role="graphics-object" aria-roledescription="area mark container"><path aria-label="Year: 2017; Total Capacity (MW): 2166.96; Technology: Panels; Date: 2017-01; Monthly Capacity (MW): 2,166.96" role="graphics-symbol" aria-roledescription="area mark" d="M0,382.664L7.419,381.13L14.12,376.294L21.528,383.218L28.708,382.839L36.126,384.074L43.306,384.753L50.725,376.751L58.143,373.582L65.323,370.364L72.741,368.24L79.931,370.318L87.35,370.84L94.768,368.208L101.469,366.011L108.878,368.824L116.057,370.169L123.476,367.166L130.655,361.284L138.074,360.38L145.493,360.771L152.672,363.522L160.091,362.124L167.28,365.488L174.699,364.923L182.118,364.621L188.819,343.018L196.227,355.505L203.407,345.945L210.826,352.87L218.005,347.689L225.424,346.302L232.843,345.355L240.022,350.236L247.441,355.899L254.63,357.749L262.049,351.963L269.468,370.751L276.408,340.437L283.816,342.803L290.996,343.79L298.415,343.914L305.594,337.658L313.013,342.391L320.431,331.788L327.611,336.475L335.03,334.889L342.219,346.172L349.638,351.923L357.056,341.388L363.757,332.34L371.166,338.102L378.345,334.742L385.764,334.062L392.944,336.432L400.362,314.745L407.781,321.792L414.96,315.538L422.379,324.631L429.569,311.627L436.987,283.873L444.406,262.857L451.107,259.4L458.516,287.909L465.695,267.739L473.114,258.596L480.293,256.828L487.712,269.107L495.131,276.02L502.31,279.702L509.729,287.069L516.918,276.076L524.337,246.032L531.756,248.677L538.456,188.608L545.865,216.595L553.045,209.498L560.463,216.322L567.643,222.82L575.061,212.373L582.48,194.193L589.66,197.719L597.078,200.446L604.268,212.53L611.686,182.352L619.105,206.385L626.045,164.567L633.454,179.699L640.634,193.895L648.052,182.719L655.232,202.206L662.65,206.26L670.069,242.813L677.249,215.352L684.667,225.997L691.857,217.088L699.275,178.94L706.694,228.933L713.395,164.689L720.804,175.785L727.983,165.177L735.402,172.713L742.581,189.364L750,125.056L750,330.353L742.581,350.36L735.402,334.635L727.983,341.888L720.804,333.996L713.395,339.212L706.694,353.331L699.275,354.194L691.857,361.87L684.667,355.268L677.249,365.352L670.069,368.919L662.65,366.913L655.232,364.957L648.052,362.301L640.634,362.765L633.454,349.786L626.045,351.361L619.105,359.821L611.686,347.913L604.268,341.439L597.078,337.103L589.66,340.507L582.48,341.708L575.061,348.535L567.643,346.719L560.463,358.776L553.045,362.554L545.865,362.354L538.456,364.024L531.756,367.48L524.337,368.687L516.918,375.292L509.729,369.954L502.31,369.391L495.131,372.158L487.712,375.832L480.293,374.058L473.114,376.036L465.695,378.233L458.516,380.705L451.107,379.5L444.406,383.569L436.987,376.506L429.569,400L422.379,400L414.96,400L407.781,400L400.362,400L392.944,400L385.764,400L378.345,400L371.166,400L363.757,400L357.056,400L349.638,400L342.219,400L335.03,400L327.611,400L320.431,400L313.013,400L305.594,400L298.415,400L290.996,400L283.816,400L276.408,400L269.468,400L262.049,400L254.63,400L247.441,400L240.022,400L232.843,400L225.424,400L218.005,400L210.826,400L203.407,400L196.227,400L188.819,400L182.118,400L174.699,400L167.28,400L160.091,400L152.672,400L145.493,400L138.074,400L130.655,400L123.476,400L116.057,400L108.878,400L101.469,400L94.768,400L87.35,400L79.931,400L72.741,400L65.323,400L58.143,400L50.725,400L43.306,400L36.126,400L28.708,400L21.528,400L14.12,400L7.419,400L0,400Z" fill="#FBA414"/></g></g><path class="foreground" aria-hidden="true" d="" display="none"/></g><g transform="translate(0,0)"><path class="background" aria-hidden="true" d="M0,0h750v400h-750Z"/><g><g class="mark-area role-mark marks" clip-path="url(#clip23)" role="graphics-object" aria-roledescription="area mark container"><path aria-label="Year: 2017; Total Capacity (MW): 0; Technology: Cells; Date: 2017-01; Monthly Capacity (MW): 0" role="graphics-symbol" aria-roledescription="area mark" d="M0,382.664L7.419,381.13L14.12,376.294L21.528,383.218L28.708,382.839L36.126,384.074L43.306,384.753L50.725,376.751L58.143,373.582L65.323,370.364L72.741,368.24L79.931,370.318L87.35,370.84L94.768,368.208L101.469,366.011L108.878,368.824L116.057,370.169L123.476,367.166L130.655,361.284L138.074,360.38L145.493,360.771L152.672,363.522L160.091,362.124L167.28,365.488L174.699,364.923L182.118,364.621L188.819,343.018L196.227,355.505L203.407,345.945L210.826,352.87L218.005,347.689L225.424,346.302L232.843,345.355L240.022,350.236L247.441,355.899L254.63,357.749L262.049,351.963L269.468,370.751L276.408,340.437L283.816,342.803L290.996,343.79L298.415,343.914L305.594,337.658L313.013,342.391L320.431,331.788L327.611,336.475L335.03,334.889L342.219,346.172L349.638,351.923L357.056,341.388L363.757,332.34L371.166,338.102L378.345,334.742L385.764,334.062L392.944,336.432L400.362,314.745L407.781,321.792L414.96,315.538L422.379,324.631L429.569,311.627L436.987,273.725L444.406,251.276L451.107,239.916L458.516,275.59L465.695,252.382L473.114,243.959L480.293,240.928L487.712,253.578L495.131,262.937L502.31,264.667L509.729,266.05L516.918,254.653L524.337,215.034L531.756,231.192L538.456,165.866L545.865,196.517L553.045,184.735L560.463,190.373L567.643,194.963L575.061,188.086L582.48,172.906L589.66,172.958L597.078,175.255L604.268,187.33L611.686,143.715L619.105,169.731L626.045,134.109L633.454,148.275L640.634,161.656L648.052,147.737L655.232,160.987L662.65,165.789L670.069,211.467L677.249,172.264L684.667,181.929L691.857,168.935L699.275,120.939L706.694,184.37L713.395,103.934L720.804,120.135L727.983,88.465L735.402,108.694L742.581,120.078L750,29.489L750,125.056L742.581,189.364L735.402,172.713L727.983,165.177L720.804,175.785L713.395,164.689L706.694,228.933L699.275,178.94L691.857,217.088L684.667,225.997L677.249,215.352L670.069,242.813L662.65,206.26L655.232,202.206L648.052,182.719L640.634,193.895L633.454,179.699L626.045,164.567L619.105,206.385L611.686,182.352L604.268,212.53L597.078,200.446L589.66,197.719L582.48,194.193L575.061,212.373L567.643,222.82L560.463,216.322L553.045,209.498L545.865,216.595L538.456,188.608L531.756,248.677L524.337,246.032L516.918,276.076L509.729,287.069L502.31,279.702L495.131,276.02L487.712,269.107L480.293,256.828L473.114,258.596L465.695,267.739L458.516,287.909L451.107,259.4L444.406,262.857L436.987,283.873L429.569,311.627L422.379,324.631L414.96,315.538L407.781,321.792L400.362,314.745L392.944,336.432L385.764,334.062L378.345,334.742L371.166,338.102L363.757,332.34L357.056,341.388L349.638,351.923L342.219,346.172L335.03,334.889L327.611,336.475L320.431,331.788L313.013,342.391L305.594,337.658L298.415,343.914L290.996,343.79L283.816,342.803L276.408,340.437L269.468,370.751L262.049,351.963L254.63,357.749L247.441,355.899L240.022,350.236L232.843,345.355L225.424,346.302L218.005,347.689L210.826,352.87L203.407,345.945L196.227,355.505L188.819,343.018L182.118,364.621L174.699,364.923L167.28,365.488L160.091,362.124L152.672,363.522L145.493,360.771L138.074,360.38L130.655,361.284L123.476,367.166L116.057,370.169L108.878,368.824L101.469,366.011L94.768,368.208L87.35,370.84L79.931,370.318L72.741,368.24L65.323,370.364L58.143,373.582L50.725,376.751L43.306,384.753L36.126,384.074L28.708,382.839L21.528,383.218L14.12,376.294L7.419,381.13L0,382.664Z" fill="#12AA9C"/></g></g><path class="foreground" aria-hidden="true" d="" display="none"/></g><g transform="translate(0,0)"><path class="background" aria-hidden="true" d="M0,0h750v400h-750Z"/><g><g class="mark-area role-mark marks" clip-path="url(#clip24)" role="graphics-object" aria-roledescription="area mark container"><path aria-label="Year: 2017; Total Capacity (MW): 0; Technology: Wafers; Date: 2017-01; Monthly Capacity (MW): 0" role="graphics-symbol" aria-roledescription="area mark" d="M0,400L7.419,400L14.12,400L21.528,400L28.708,400L36.126,400L43.306,400L50.725,400L58.143,400L65.323,400L72.741,400L79.931,400L87.35,400L94.768,400L101.469,400L108.878,400L116.057,400L123.476,400L130.655,400L138.074,400L145.493,400L152.672,400L160.091,400L167.28,400L174.699,400L182.118,400L188.819,400L196.227,400L203.407,400L210.826,400L218.005,400L225.424,400L232.843,400L240.022,400L247.441,400L254.63,400L262.049,400L269.468,400L276.408,400L283.816,400L290.996,400L298.415,400L305.594,400L313.013,400L320.431,400L327.611,400L335.03,400L342.219,400L349.638,400L357.056,400L363.757,400L371.166,400L378.345,400L385.764,400L392.944,400L400.362,400L407.781,400L414.96,400L422.379,400L429.569,400L436.987,376.506L444.406,383.569L451.107,379.5L458.516,380.705L465.695,378.233L473.114,376.036L480.293,374.058L487.712,375.832L495.131,372.158L502.31,369.391L509.729,369.954L516.918,375.292L524.337,368.687L531.756,367.48L538.456,364.024L545.865,362.354L553.045,362.554L560.463,358.776L567.643,346.719L575.061,348.535L582.48,341.708L589.66,340.507L597.078,337.103L604.268,341.439L611.686,347.913L619.105,359.821L626.045,351.361L633.454,349.786L640.634,362.765L648.052,362.301L655.232,364.957L662.65,366.913L670.069,368.919L677.249,365.352L684.667,355.268L691.857,361.87L699.275,354.194L706.694,353.331L713.395,339.212L720.804,333.996L727.983,341.888L735.402,334.635L742.581,350.36L750,330.353L750,400L742.581,400L735.402,400L727.983,400L720.804,400L713.395,400L706.694,400L699.275,400L691.857,400L684.667,400L677.249,400L670.069,400L662.65,400L655.232,400L648.052,400L640.634,400L633.454,400L626.045,400L619.105,400L611.686,400L604.268,400L597.078,400L589.66,400L582.48,400L575.061,400L567.643,400L560.463,400L553.045,400L545.865,400L538.456,400L531.756,400L524.337,400L516.918,400L509.729,400L502.31,400L495.131,400L487.712,400L480.293,400L473.114,400L465.695,400L458.516,400L451.107,400L444.406,400L436.987,400L429.569,400L422.379,400L414.96,400L407.781,400L400.362,400L392.944,400L385.764,400L378.345,400L371.166,400L363.757,400L357.056,400L349.638,400L342.219,400L335.03,400L327.611,400L320.431,400L313.013,400L305.594,400L298.415,400L290.996,400L283.816,400L276.408,400L269.468,400L262.049,400L254.63,400L247.441,400L240.022,400L232.843,400L225.424,400L218.005,400L210.826,400L203.407,400L196.227,400L188.819,400L182.118,400L174.699,400L167.28,400L160.091,400L152.672,400L145.493,400L138.074,400L130.655,400L123.476,400L116.057,400L108.878,400L101.469,400L94.768,400L87.35,400L79.931,400L72.741,400L65.323,400L58.143,400L50.725,400L43.306,400L36.126,400L28.708,400L21.528,400L14.12,400L7.419,400L0,400Z" fill="#5A1216"/></g></g><path class="foreground" aria-hidden="true" d="" display="none"/></g></g><g class="mark-group role-legend" role="graphics-symbol" aria-roledescription="legend" aria-label="Symbol legend titled 'Technology' for fill color with 3 values: Panels, Cells, Wafers"><g transform="translate(768,0)"><path class="background" aria-hidden="true" d="M0,0h61v53h-61Z" pointer-events="none"/><g><g class="mark-group role-legend-entry"><g transform="translate(0,16)"><path class="background" aria-hidden="true" d="M0,0h0v0h0Z" pointer-events="none"/><g><g class="mark-group role-scope" role="graphics-object" aria-roledescription="group mark container"><g transform="translate(0,0)"><path class="background" aria-hidden="true" d="M0,0h47.298828125v11h-47.298828125Z" pointer-events="none" opacity="1"/><g><g class="mark-symbol role-legend-symbol" pointer-events="none"><path transform="translate(6,6)" d="M5,0A5,5,0,1,1,-5,0A5,5,0,1,1,5,0" fill="#FBA414" stroke-width="1.5" opacity="1"/></g><g class="mark-text role-legend-label" pointer-events="none"><text text-anchor="start" transform="translate(16,9)" font-family="sans-serif" font-size="10px" fill="#000" opacity="1">Panels</text></g></g><path class="foreground" aria-hidden="true" d="" pointer-events="none" display="none"/></g><g transform="translate(0,13)"><path class="background" aria-hidden="true" d="M0,0h47.298828125v11h-47.298828125Z" pointer-events="none" opacity="1"/><g><g class="mark-symbol role-legend-symbol" pointer-events="none"><path transform="translate(6,6)" d="M5,0A5,5,0,1,1,-5,0A5,5,0,1,1,5,0" fill="#12AA9C" stroke-width="1.5" opacity="1"/></g><g class="mark-text role-legend-label" pointer-events="none"><text text-anchor="start" transform="translate(16,9)" font-family="sans-serif" font-size="10px" fill="#000" opacity="1">Cells</text></g></g><path class="foreground" aria-hidden="true" d="" pointer-events="none" display="none"/></g><g transform="translate(0,26)"><path class="background" aria-hidden="true" d="M0,0h47.298828125v11h-47.298828125Z" pointer-events="none" opacity="1"/><g><g class="mark-symbol role-legend-symbol" pointer-events="none"><path transform="translate(6,6)" d="M5,0A5,5,0,1,1,-5,0A5,5,0,1,1,5,0" fill="#5A1216" stroke-width="1.5" opacity="1"/></g><g class="mark-text role-legend-label" pointer-events="none"><text text-anchor="start" transform="translate(16,9)" font-family="sans-serif" font-size="10px" fill="#000" opacity="1">Wafers</text></g></g><path class="foreground" aria-hidden="true" d="" pointer-events="none" display="none"/></g></g></g><path class="foreground" aria-hidden="true" d="" pointer-events="none" display="none"/></g></g><g class="mark-text role-legend-title" pointer-events="none"><text text-anchor="start" transform="translate(0,9)" font-family="sans-serif" font-size="11px" font-weight="bold" fill="#000" opacity="1">Technology</text></g></g><path class="foreground" aria-hidden="true" d="" pointer-events="none" display="none"/></g></g><g class="mark-group role-title"><g transform="translate(375,-26)"><path class="background" aria-hidden="true" d="M0,0h0v0h0Z" pointer-events="none"/><g><g class="mark-text role-title-text" role="graphics-symbol" aria-roledescription="title" aria-label="Title text 'China’s Global Solar Technology Export Volumes Over Time'" pointer-events="none"><text text-anchor="middle" transform="translate(0,13)" font-family="Helvetica" font-size="17px" font-weight="bold" fill="#000" opacity="1">China’s Global Solar Technology Export Volumes Over Time</text></g></g><path class="foreground" aria-hidden="true" d="" pointer-events="none" display="none"/></g></g></g><path class="foreground" aria-hidden="true" d="" display="none"/></g></g></g><defs><clipPath id="clip22"><rect x="0" y="0" width="750" height="400"/></clipPath><clipPath id="clip23"><rect x="0" y="0" width="750" height="400"/></clipPath><clipPath id="clip24"><rect x="0" y="0" width="750" height="400"/></clipPath></defs></svg>