<svg xmlns="http://www.w3.org/2000/svg" xmlns:xlink="http://www.w3.org/1999/xlink" version="1.1" class="marks" width="986" height="491" viewBox="0 0 986 491"><rect width="986" height="491" fill="white"/><g fill="none" stroke-miterlimit="10" transform="translate(58,34)"><g class="mark-group role-frame root" role="graphics-object" aria-roledescription="group mark container"><g transform="translate(0,0)"><path class="background" aria-hidden="true" d="M0.5,0.5h750v420h-750Z" stroke="#ddd"/><g><g class="mark-group role-axis" role="graphics-symbol" aria-roledescription="axis" aria-label="X-axis titled 'Year' for a time scale with values from 2017 to 2025"><g transform="translate(0.5,420.5)"><path class="background" aria-hidden="true" d="M0,0h0v0h0Z" pointer-events="none"/><g><g class="mark-rule role-axis-tick" pointer-events="none"><line transform="translate(0,0)" x2="0" y2="5" stroke="#888" stroke-width="1" opacity="1"/><line transform="translate(87,0)" x2="0" y2="5" stroke="#888" stroke-width="1" opacity="1"/><line transform="translate(175,0)" x2="0" y2="5" stroke="#888" stroke-width="1" opacity="1"/><line transform="translate(262,0)" x2="0" y2="5" stroke="#888" stroke-width="1" opacity="1"/><line transform="translate(350,0)" x2="0" y2="5" stroke="#888" stroke-width="1" opacity="1"/><line transform="translate(437,0)" x2="0" y2="5" stroke="#888" stroke-width="1" opacity="1"/><line transform="translate(524,0)" x2="0" y2="5" stroke="#888" stroke-width="1" opacity="1"/><line transform="translate(612,0)" x2="0" y2="5" stroke="#888" stroke-width="1" opacity="1"/><line transform="translate(699,0)" x2="0" y2="5" stroke="#888" stroke-width="1" opacity="1"/></g><g class="mark-text role-axis-label" pointer-events="none"><text text-anchor="start" transform="translate(0,15)" font-family="sans-serif" font-size="10px" fill="#000" opacity="1">2017</text><text text-anchor="middle" transform="translate(87.34959781958386,15)" font-family="sans-serif" font-size="10px" fill="#000" opacity="1">2018</text><text text-anchor="middle" transform="translate(174.69919563916773,15)" font-family="sans-serif" font-size="10px" fill="#000" opacity="1">2019</text><text text-anchor="middle" transform="translate(262.04879345875156,15)" font-family="sans-serif" font-size="10px" fill="#000" opacity="1">2020</text><text text-anchor="middle" transform="translate(349.6377052449644,15)" font-family="sans-serif" font-size="10px" fill="#000" opacity="1">2021</text><text text-anchor="middle" transform="translate(436.9873030645483,15)" font-family="sans-serif" font-size="10px" fill="#000" opacity="1">2022</text><text text-anchor="middle" transform="translate(524.3369008841321,15)" font-family="sans-serif" font-size="10px" fill="#000" opacity="1">2023</text><text text-anchor="middle" transform="translate(611.686498703716,15)" font-family="sans-serif" font-size="10px" fill="#000" opacity="1">2024</text><text text-anchor="middle" transform="translate(699.2754104899288,15)" font-family="sans-serif" font-size="10px" fill="#000" opacity="1">2025</text></g><g class="mark-rule role-axis-domain" pointer-events="none"><line transform="translate(0,0)" x2="750" y2="0" stroke="#888" stroke-width="1" opacity="1"/></g><g class="mark-text role-axis-title" pointer-events="none"><text text-anchor="middle" transform="translate(375,30)" font-family="sans-serif" font-size="11px" font-weight="bold" fill="#000" opacity="1">Year</text></g></g><path class="foreground" aria-hidden="true" d="" pointer-events="none" display="none"/></g></g><g class="mark-group role-axis" role="graphics-symbol" aria-roledescription="axis" aria-label="Y-axis titled 'Total Capacity (MW)' for a linear scale with values from 0 to 26,000"><g transform="translate(0.5,0.5)"><path class="background" aria-hidden="true" d="M0,0h0v0h0Z" pointer-events="none"/><g><g class="mark-rule role-axis-tick" pointer-events="none"><line transform="translate(0,420)" x2="-5" y2="0" stroke="#888" stroke-width="1" opacity="1"/><line transform="translate(0,388)" x2="-5" y2="0" stroke="#888" stroke-width="1" opacity="1"/><line transform="translate(0,355)" x2="-5" y2="0" stroke="#888" stroke-width="1" opacity="1"/><line transform="translate(0,323)" x2="-5" y2="0" stroke="#888" stroke-width="1" opacity="1"/><line transform="translate(0,291)" x2="-5" y2="0" stroke="#888" stroke-width="1" opacity="1"/><line transform="translate(0,258)" x2="-5" y2="0" stroke="#888" stroke-width="1" opacity="1"/><line transform="translate(0,226)" x2="-5" y2="0" stroke="#888" stroke-width="1" opacity="1"/><line transform="translate(0,194)" x2="-5" y2="0" stroke="#888" stroke-width="1" opacity="1"/><line transform="translate(0,162)" x2="-5" y2="0" stroke="#888" stroke-width="1" opacity="1"/><line transform="translate(0,129)" x2="-5" y2="0" stroke="#888" stroke-width="1" opacity="1"/><line transform="translate(0,97)" x2="-5" y2="0" stroke="#888" stroke-width="1" opacity="1"/><line transform="translate(0,65)" x2="-5" y2="0" stroke="#888" stroke-width="1" opacity="1"/><line transform="translate(0,32)" x2="-5" y2="0" stroke="#888" stroke-width="1" opacity="1"/><line transform="translate(0,0)" x2="-5" y2="0" stroke="#888" stroke-width="1" opacity="1"/></g><g class="mark-text role-axis-label" pointer-events="none"><text text-anchor="end" transform="translate(-7,423)" font-family="sans-serif" font-size="10px" fill="#000" opacity="1">0</text><text text-anchor="end" transform="translate(-7,390.69230769230774)" font-family="sans-serif" font-size="10px" fill="#000" opacity="1">2,000</text><text text-anchor="end" transform="translate(-7,358.38461538461536)" font-family="sans-serif" font-size="10px" fill="#000" opacity="1">4,000</text><text text-anchor="end" transform="translate(-7,326.07692307692304)" font-family="sans-serif" font-size="10px" fill="#000" opacity="1">6,000</text><text text-anchor="end" transform="translate(-7,293.7692307692308)" font-family="sans-serif" font-size="10px" fill="#000" opacity="1">8,000</text><text text-anchor="end" transform="translate(-7,261.46153846153845)" font-family="sans-serif" font-size="10px" fill="#000" opacity="1">10,000</text><text text-anchor="end" transform="translate(-7,229.15384615384613)" font-family="sans-serif" font-size="10px" fill="#000" opacity="1">12,000</text><text text-anchor="end" transform="translate(-7,196.84615384615387)" font-family="sans-serif" font-size="10px" fill="#000" opacity="1">14,000</text><text text-anchor="end" transform="translate(-7,164.53846153846152)" font-family="sans-serif" font-size="10px" fill="#000" opacity="1">16,000</text><text text-anchor="end" transform="translate(-7,132.23076923076923)" font-family="sans-serif" font-size="10px" fill="#000" opacity="1">18,000</text><text text-anchor="end" transform="translate(-7,99.9230769230769)" font-family="sans-serif" font-size="10px" fill="#000" opacity="1">20,000</text><text text-anchor="end" transform="translate(-7,67.61538461538461)" font-family="sans-serif" font-size="10px" fill="#000" opacity="1">22,000</text><text text-anchor="end" transform="translate(-7,35.307692307692285)" font-family="sans-serif" font-size="10px" fill="#000" opacity="1">24,000</text><text text-anchor="end" transform="translate(-7,3)" font-family="sans-serif" font-size="10px" fill="#000" opacity="1">26,000</text></g><g class="mark-rule role-axis-domain" pointer-events="none"><line transform="translate(0,420)" x2="0" y2="-420" stroke="#888" stroke-width="1" opacity="1"/></g><g class="mark-text role-axis-title" pointer-events="none"><text text-anchor="middle" transform="translate(-41.5859375,210) rotate(-90) translate(0,-2)" font-family="sans-serif" font-size="11px" font-weight="bold" fill="#000" opacity="1">Total Capacity (MW)</text></g></g><path class="foreground" aria-hidden="true" d="" pointer-events="none" display="none"/></g></g><g class="mark-group role-scope layer_0_pathgroup" role="graphics-object" aria-roledescription="group mark container"><g transform="translate(0,0)"><path class="background" aria-hidden="true" d="M0,0h750v420h-750Z"/><g><g class="mark-line role-mark layer_0_marks" role="graphics-object" aria-roledescription="line mark container"><path aria-label="Year: 2017; Total Capacity (MW): 57.86; Region: Africa" role="graphics-symbol" aria-roledescription="line mark" d="M0,419.065L7.419,419.36L14.12,419.031L21.528,418.272L28.708,418.415L36.126,418.455L43.306,418.717L50.725,418.624L58.143,418.612L65.323,418.19L72.741,417.186L79.931,416.695L87.35,417.203L94.768,417.787L101.469,417.142L108.878,416.335L116.057,417.602L123.476,414.778L130.655,414.207L138.074,411.607L145.493,410.449L152.672,412.253L160.091,413.157L167.28,415.636L174.699,416.429L182.118,417.339L188.819,415.536L196.227,415.713L203.407,415.456L210.826,416.072L218.005,415.933L225.424,416.416L232.843,416.153L240.022,417.046L247.441,416.374L254.63,415.558L262.049,414.518L269.468,418.972L276.408,415.986L283.816,416.753L290.996,416.852L298.415,416.605L305.594,416.239L313.013,416.7L320.431,416.414L327.611,416.403L335.03,417.122L342.219,417.247L349.638,416.68L357.056,416.879L363.757,416.905L371.166,416.216L378.345,416.428L385.764,415.126L392.944,414.508L400.362,416.015L407.781,414.951L414.96,415.624L422.379,416.177L429.569,415.624L436.987,413.78L444.406,415.954L451.107,413.499L458.516,415.853L465.695,413.174L473.114,413.931L480.293,413.437L487.712,414.047L495.131,413.654L502.31,414.004L509.729,413.653L516.918,411.035L524.337,410.591L531.756,410.303L538.456,405.164L545.865,402.005L553.045,398.291L560.463,402.023L567.643,404.803L575.061,409.371L582.48,409.269L589.66,408.946L597.078,408.193L604.268,409.544L611.686,405.653L619.105,407.356L626.045,403.474L633.454,404.726L640.634,402.641L648.052,398.641L655.232,399.231L662.65,401.642L670.069,404.958L677.249,396.514L684.667,397.1L691.857,393.878L699.275,393.971L706.694,408.597L713.395,390.216L720.804,391.145L727.983,390.108L735.402,383.283L742.581,384.198L750,385.084" stroke="#D0957E" stroke-width="2"/></g></g><path class="foreground" aria-hidden="true" d="" display="none"/></g><g transform="translate(0,0)"><path class="background" aria-hidden="true" d="M0,0h750v420h-750Z"/><g><g class="mark-line role-mark layer_0_marks" role="graphics-object" aria-roledescription="line mark container"><path aria-label="Year: 2017; Total Capacity (MW): 1555.03; Region: Asia" role="graphics-symbol" aria-roledescription="line mark" d="M0,394.88L7.419,390.786L14.12,384.547L21.528,399.136L28.708,399.112L36.126,399.638L43.306,403.717L50.725,395.288L58.143,393.613L65.323,397.102L72.741,389.431L79.931,384.914L87.35,386.866L94.768,384.318L101.469,390.417L108.878,398.581L116.057,396.847L123.476,393.243L130.655,383.22L138.074,387.794L145.493,391.128L152.672,396.024L160.091,385.211L167.28,384.292L174.699,387.226L182.118,387.821L188.819,367.93L196.227,387.87L203.407,378.466L210.826,387.96L218.005,387.301L225.424,385.746L232.843,382.712L240.022,388.07L247.441,387.618L254.63,389.589L262.049,388.425L269.468,401.402L276.408,379.649L283.816,386.929L290.996,388.272L298.415,383.427L305.594,371.673L313.013,375.119L320.431,357.247L327.611,362.128L335.03,343.352L342.219,367.069L349.638,387.762L357.056,378.114L363.757,372.566L371.166,381.181L378.345,374.885L385.764,382.937L392.944,383.181L400.362,367.707L407.781,370.463L414.96,364.898L422.379,373.975L429.569,362.958L436.987,300.594L444.406,276.984L451.107,286.953L458.516,346.261L465.695,332.56L473.114,322.789L480.293,320.861L487.712,328.699L495.131,326.491L502.31,315.74L509.729,307.728L516.918,308.843L524.337,287.507L531.756,290.728L538.456,269.75L545.865,273.815L553.045,286.386L560.463,265.516L567.643,227.808L575.061,229.644L582.48,186.341L589.66,170.029L597.078,144.353L604.268,169.482L611.686,145.417L619.105,186.576L626.045,165.421L633.454,205.683L640.634,238.18L648.052,210.824L655.232,208.132L662.65,221.803L670.069,258.325L677.249,223.274L684.667,189.455L691.857,195.934L699.275,102.299L706.694,164.572L713.395,87.453L720.804,107.773L727.983,83.452L735.402,116.278L742.581,133.878L750,45.237" stroke="#F7D881" stroke-width="2"/></g></g><path class="foreground" aria-hidden="true" d="" display="none"/></g><g transform="translate(0,0)"><path class="background" aria-hidden="true" d="M0,0h750v420h-750Z"/><g><g class="mark-line role-mark layer_0_marks" role="graphics-object" aria-roledescription="line mark container"><path aria-label="Year: 2017; Total Capacity (MW): 153.63; Region: Europe" role="graphics-symbol" aria-roledescription="line mark" d="M0,417.518L7.419,417.906L14.12,416.129L21.528,417.807L28.708,418.065L36.126,418.065L43.306,417.154L50.725,415.374L58.143,415.637L65.323,414.175L72.741,414.655L79.931,416.665L87.35,415.489L94.768,414.178L101.469,414.539L108.878,412.385L116.057,412.462L123.476,411.555L130.655,409.664L138.074,407.251L145.493,405.087L152.672,401.085L160.091,408.009L167.28,405.707L174.699,400.447L182.118,398.898L188.819,386.623L196.227,389.931L203.407,383.485L210.826,384.79L218.005,379.524L225.424,377.628L232.843,382.929L240.022,386.408L247.441,396.204L254.63,399.008L262.049,393.289L269.468,401.651L276.408,379.377L283.816,365.392L290.996,366.874L298.415,369.363L305.594,373.838L313.013,372.725L320.431,373.247L327.611,381.301L335.03,394.411L342.219,392.811L349.638,389.255L357.056,378.11L363.757,367.829L371.166,365.899L378.345,361.976L385.764,351.899L392.944,360.519L400.362,340.696L407.781,352.713L414.96,347.473L422.379,367.596L429.569,356.89L436.987,345.011L444.406,314.486L451.107,286.187L458.516,289.358L465.695,272.853L473.114,268.682L480.293,271.277L487.712,280.307L495.131,296.23L502.31,303.58L509.729,310.505L516.918,295.944L524.337,251.538L531.756,271.192L538.456,194.668L545.865,238.312L553.045,206.224L560.463,230.387L567.643,280.605L575.061,272.617L582.48,286.198L589.66,303.199L597.078,330.507L604.268,324.805L611.686,292.899L619.105,279.981L626.045,246.92L633.454,223.435L640.634,226.715L648.052,244.897L655.232,262.694L662.65,264.949L670.069,303.247L677.249,280.832L684.667,336.584L691.857,303.768L699.275,289.559L706.694,315.165L713.395,270.112L720.804,267.808L727.983,244.912L735.402,261.531L742.581,259.276L750,187.157" stroke="#006796" stroke-width="2"/></g></g><path class="foreground" aria-hidden="true" d="" display="none"/></g><g transform="translate(0,0)"><path class="background" aria-hidden="true" d="M0,0h750v420h-750Z"/><g><g class="mark-line role-mark layer_0_marks" role="graphics-object" aria-roledescription="line mark container"><path aria-label="Year: 2017; Total Capacity (MW): 203.31; Region: Latin America and Caribbean" role="graphics-symbol" aria-roledescription="line mark" d="M0,416.716L7.419,416.303L14.12,415.663L21.528,415.235L28.708,414.698L36.126,415.471L43.306,414.701L50.725,412.533L58.143,413.944L65.323,412.205L72.741,412.4L79.931,413.25L87.35,411.959L94.768,411.049L101.469,403.733L108.878,409.608L116.057,408.022L123.476,404.587L130.655,405.551L138.074,404.05L145.493,403.434L152.672,407.446L160.091,407.468L167.28,411.184L174.699,412.876L182.118,412.775L188.819,406.824L196.227,405.644L203.407,406.681L210.826,407.22L218.005,406.103L225.424,404.406L232.843,401.793L240.022,401.226L247.441,403.768L254.63,400.518L262.049,398.073L269.468,410.093L276.408,401.995L283.816,408.971L290.996,410.76L298.415,408.9L305.594,407.303L313.013,410.048L320.431,406.872L327.611,404.242L335.03,406.15L342.219,405.933L349.638,398.699L357.056,403.256L363.757,400.645L371.166,404.97L378.345,407.048L385.764,407.87L392.944,405.536L400.362,395.41L407.781,397.336L414.96,394.164L422.379,384.277L429.569,381.526L436.987,380.686L444.406,384.375L451.107,389.132L458.516,392.636L465.695,389.321L473.114,386.468L480.293,380.176L487.712,384.079L495.131,387.379L502.31,387.187L509.729,393.357L516.918,390.142L524.337,377.541L531.756,388.739L538.456,368.592L545.865,381.34L553.045,381.667L560.463,391.288L567.643,382.088L575.061,377.857L582.48,381.297L589.66,379.709L597.078,372.593L604.268,378.785L611.686,369.627L619.105,377.635L626.045,382.985L633.454,384.867L640.634,380.844L648.052,373.896L655.232,381.207L662.65,375.42L670.069,380.049L677.249,375.473L684.667,367.275L691.857,366.662L699.275,362.667L706.694,387.077L713.395,385.575L720.804,393.029L727.983,391.184L735.402,392.33L742.581,388.649L750,377.01" stroke="#FF8F00" stroke-width="2"/></g></g><path class="foreground" aria-hidden="true" d="" display="none"/></g><g transform="translate(0,0)"><path class="background" aria-hidden="true" d="M0,0h750v420h-750Z"/><g><g class="mark-line role-mark layer_0_marks" role="graphics-object" aria-roledescription="line mark container"><path aria-label="Year: 2017; Total Capacity (MW): 32.63; Region: North America" role="graphics-symbol" aria-roledescription="line mark" d="M0,419.473L7.419,419.69L14.12,419.552L21.528,419.716L28.708,419.564L36.126,419.535L43.306,419.299L50.725,416.782L58.143,411.566L65.323,407.502L72.741,411.709L79.931,418.632L87.35,419.532L94.768,419.51L101.469,419.311L108.878,419.427L116.057,419.68L123.476,419.443L130.655,419.382L138.074,419.461L145.493,419.71L152.672,419.755L160.091,419.721L167.28,419.648L174.699,419.667L182.118,419.807L188.819,419.784L196.227,419.635L203.407,419.511L210.826,419.626L218.005,419.295L225.424,419.353L232.843,418.897L240.022,417.046L247.441,415.705L254.63,415.81L262.049,415.628L269.468,413.409L276.408,413.743L283.816,415.506L290.996,414.954L298.415,419.015L305.594,417.7L313.013,418.54L320.431,418.789L327.611,418.89L335.03,419.069L342.219,419.2L349.638,419.203L357.056,419.163L363.757,419.075L371.166,418.97L378.345,418.928L385.764,419.009L392.944,419.045L400.362,419.063L407.781,419.26L414.96,419.269L422.379,419.236L429.569,419.202L436.987,418.805L444.406,419.291L451.107,419.274L458.516,419.178L465.695,418.319L473.114,418.219L480.293,418.832L487.712,418.583L495.131,418.79L502.31,418.23L509.729,418.173L516.918,418.136L524.337,418.728L531.756,419.055L538.456,418.44L545.865,418.456L553.045,418.623L560.463,418.413L567.643,418.642L575.061,418.257L582.48,418.298L589.66,418.016L597.078,418.358L604.268,418.606L611.686,418.062L619.105,418.929L626.045,418.622L633.454,417.675L640.634,417.299L648.052,417.704L655.232,417.377L662.65,417.24L670.069,417.835L677.249,416.681L684.667,408.236L691.857,413.733L699.275,415.864L706.694,417.86L713.395,414.711L720.804,417.283L727.983,413.679L735.402,414.504L742.581,416.916L750,416.226" stroke="#6ABA92" stroke-width="2"/></g></g><path class="foreground" aria-hidden="true" d="" display="none"/></g></g><g class="mark-symbol role-mark layer_1_marks" role="graphics-object" aria-roledescription="symbol mark container"><path aria-label="Year: 2025; Total Capacity (MW): 2161.44; Region: Africa" role="graphics-symbol" aria-roledescription="point" transform="translate(750,385.0844307692308)" d="M3.708,0A3.708,3.708,0,1,1,-3.708,0A3.708,3.708,0,1,1,3.708,0" fill="#D0957E" stroke-width="2" opacity="0.7"/><path aria-label="Year: 2025; Total Capacity (MW): 23199.63; Region: Asia" role="graphics-symbol" aria-roledescription="point" transform="translate(750,45.23674615384619)" d="M3.708,0A3.708,3.708,0,1,1,-3.708,0A3.708,3.708,0,1,1,3.708,0" fill="#F7D881" stroke-width="2" opacity="0.7"/><path aria-label="Year: 2025; Total Capacity (MW): 14414.1; Region: Europe" role="graphics-symbol" aria-roledescription="point" transform="translate(750,187.1568461538462)" d="M3.708,0A3.708,3.708,0,1,1,-3.708,0A3.708,3.708,0,1,1,3.708,0" fill="#006796" stroke-width="2" opacity="0.7"/><path aria-label="Year: 2025; Total Capacity (MW): 2661.3; Region: Latin America and Caribbean" role="graphics-symbol" aria-roledescription="point" transform="translate(750,377.0097692307692)" d="M3.708,0A3.708,3.708,0,1,1,-3.708,0A3.708,3.708,0,1,1,3.708,0" fill="#FF8F00" stroke-width="2" opacity="0.7"/><path aria-label="Year: 2025; Total Capacity (MW): 233.65; Region: North America" role="graphics-symbol" aria-roledescription="point" transform="translate(750,416.2256538461539)" d="M3.708,0A3.708,3.708,0,1,1,-3.708,0A3.708,3.708,0,1,1,3.708,0" fill="#6ABA92" stroke-width="2" opacity="0.7"/></g><g class="mark-text role-mark layer_2_marks" role="graphics-object" aria-roledescription="text mark container"><text aria-label="Date: Aug 01, 2025; label_y: 1472.4606; Region: Africa" role="graphics-symbol" aria-roledescription="text mark" text-anchor="start" transform="translate(755,400.214098)" font-family="sans-serif" font-size="13px" fill="black">Africa</text><text aria-label="Date: Aug 01, 2025; label_y: 24577.5888; Region: Asia" role="graphics-symbol" aria-roledescription="text mark" text-anchor="start" transform="translate(755,26.97741169230774)" font-family="sans-serif" font-size="13px" fill="black">Asia</text><text aria-label="Date: Aug 01, 2025; label_y: 15103.0794; Region: Europe" role="graphics-symbol" aria-roledescription="text mark" text-anchor="start" transform="translate(755,180.02717892307695)" font-family="sans-serif" font-size="13px" fill="black">Europe</text><text aria-label="Date: Aug 01, 2025; label_y: 2661.3; Region: Latin America and Caribbean" role="graphics-symbol" aria-roledescription="text mark" text-anchor="start" transform="translate(755,381.0097692307692)" font-family="sans-serif" font-size="13px" fill="black">Latin America and Caribbean</text><text aria-label="Date: Aug 01, 2025; label_y: 81.7775; Region: North America" role="graphics-symbol" aria-roledescription="text mark" text-anchor="start" transform="translate(755,422.6789788461538)" font-family="sans-serif" font-size="13px" fill="black">North America</text></g><g class="mark-group role-title"><g transform="translate(375,-29)"><path class="background" aria-hidden="true" d="M0,0h0v0h0Z" pointer-events="none"/><g><g class="mark-text role-title-text" role="graphics-symbol" aria-roledescription="title" aria-label="Title text 'Regional Demand for Chinese Solar Technology'" pointer-events="none"><text text-anchor="middle" transform="translate(0,16)" font-family="Helvetica" font-size="20px" font-weight="bold" fill="#000" opacity="1">Regional Demand for Chinese Solar Technology</text></g></g><path class="foreground" aria-hidden="true" d="" pointer-events="none" display="none"/></g></g></g><path class="foreground" aria-hidden="true" d="" display="none"/></g></g></g></svg>