<svg xmlns="http://www.w3.org/2000/svg" xmlns:xlink="http://www.w3.org/1999/xlink" version="1.1" class="marks" width="310" height="310" viewBox="0 0 310 310"><rect width="310" height="310" fill="white"/><g fill="none" stroke-miterlimit="10" transform="translate(5,5)"><g class="mark-group role-frame root" role="graphics-object" aria-roledescription="group mark container"><g transform="translate(0,0)"><path class="background" aria-hidden="true" d="M0,0h300v300h-300Z"/><g><g class="mark-arc role-mark layer_0_marks" role="graphics-object" aria-roledescription="arc mark container"><path aria-label="share: 84.6; country: China" role="graphics-symbol" aria-roledescription="arc mark" transform="translate(150,150)" d="M-98.46,-68.597A120,120,0,1,0,0,-120L0,0Z" fill="#4c78a8"/><path aria-label="share: 3.4; country: Vietnam" role="graphics-symbol" aria-roledescription="arc mark" transform="translate(150,150)" d="M0,-120A120,120,0,0,0,-25.466,-117.267L0,0Z" fill="#b279a2"/><path aria-label="share: 2.7; country: India" role="graphics-symbol" aria-roledescription="arc mark" transform="translate(150,150)" d="M-85.451,-84.25A120,120,0,0,0,-98.46,-68.597L0,0Z" fill="#f58518"/><path aria-label="share: 2.3; country: Thailand" role="graphics-symbol" aria-roledescription="arc mark" transform="translate(150,150)" d="M-41.397,-112.633A120,120,0,0,0,-57.201,-105.49L0,0Z" fill="#54a24b"/><path aria-label="share: 2.2; country: United States" role="graphics-symbol" aria-roledescription="arc mark" transform="translate(150,150)" d="M-25.466,-117.267A120,120,0,0,0,-41.397,-112.633L0,0Z" fill="#eeca3b"/><path aria-label="share: 2.1; country: Malaysia" role="graphics-symbol" aria-roledescription="arc mark" transform="translate(150,150)" d="M-73.611,-94.77A120,120,0,0,0,-85.451,-84.25L0,0Z" fill="#e45756"/><path aria-label="share: 2.6; country: Others" role="graphics-symbol" aria-roledescription="arc mark" transform="translate(150,150)" d="M-57.201,-105.49A120,120,0,0,0,-73.611,-94.77L0,0Z" fill="#72b7b2"/></g><g class="mark-text role-mark layer_1_marks" role="graphics-object" aria-roledescription="text mark container"><text aria-label="share: 84.6; country: China" role="graphics-symbol" aria-roledescription="text mark" text-anchor="middle" transform="translate(214.79120521542183,280.10519621165383)" font-family="sans-serif" font-size="20px" fill="#4c78a8">China</text><text aria-label="share: 3.4; country: Vietnam" role="graphics-symbol" aria-roledescription="text mark" text-anchor="middle" transform="translate(135.0595548480096,16.79948599714021)" font-family="sans-serif" font-size="20px" fill="#b279a2">Vietnam</text><text aria-label="share: 2.7; country: India" role="graphics-symbol" aria-roledescription="text mark" text-anchor="middle" transform="translate(42.33047907959562,66.51662576338214)" font-family="sans-serif" font-size="20px" fill="#f58518">India</text><text aria-label="share: 2.3; country: Thailand" role="graphics-symbol" aria-roledescription="text mark" text-anchor="middle" transform="translate(92.33382524584087,28.428011345661062)" font-family="sans-serif" font-size="20px" fill="#54a24b">Thailand</text><text aria-label="share: 2.2; country: United States" role="graphics-symbol" aria-roledescription="text mark" text-anchor="middle" transform="translate(110.90319633900369,21.5699440471235)" font-family="sans-serif" font-size="20px" fill="#eeca3b">United States</text><text aria-label="share: 2.1; country: Malaysia" role="graphics-symbol" aria-roledescription="text mark" text-anchor="middle" transform="translate(57.010829487214,51.34335106003054)" font-family="sans-serif" font-size="20px" fill="#e45756">Malaysia</text><text aria-label="share: 2.6; country: Others" role="graphics-symbol" aria-roledescription="text mark" text-anchor="middle" transform="translate(73.43695743089211,38.79035657182055)" font-family="sans-serif" font-size="20px" fill="#72b7b2">Others</text></g></g><path class="foreground" aria-hidden="true" d="" display="none"/></g></g></g></svg>